<mxfile host="65bd71144e">
    <diagram id="YQlereqFKNG88Uhl_2Cm" name="ページ1">
        <mxGraphModel dx="2585" dy="2872" grid="1" gridSize="10" guides="1" tooltips="1" connect="1" arrows="1" fold="1" page="1" pageScale="1" pageWidth="1600" pageHeight="900" math="0" shadow="0">
            <root>
                <mxCell id="0"/>
                <mxCell id="1" parent="0"/>
                <mxCell id="24" value="" style="group" vertex="1" connectable="0" parent="1">
                    <mxGeometry x="400" y="142.5" width="173" height="315" as="geometry"/>
                </mxCell>
                <mxCell id="6" value="" style="shape=cylinder3;whiteSpace=wrap;html=1;boundedLbl=1;backgroundOutline=1;size=15;strokeWidth=2;fontSize=40;fillColor=none;" parent="24" vertex="1">
                    <mxGeometry width="173" height="230" as="geometry"/>
                </mxCell>
                <mxCell id="12" value="リレー" style="text;html=1;align=center;verticalAlign=middle;resizable=0;points=[];autosize=1;strokeColor=none;fillColor=none;fontSize=40;strokeWidth=2;" parent="1" vertex="1">
                    <mxGeometry x="936.5" y="82.5" width="140" height="60" as="geometry"/>
                </mxCell>
                <mxCell id="27" value="" style="shape=cylinder3;whiteSpace=wrap;html=1;boundedLbl=1;backgroundOutline=1;size=15;strokeWidth=2;fontSize=40;fillColor=none;" vertex="1" parent="1">
                    <mxGeometry x="920" y="160" width="173" height="230" as="geometry"/>
                </mxCell>
                <mxCell id="29" value="" style="group" vertex="1" connectable="0" parent="1">
                    <mxGeometry x="1130" y="480" width="260" height="310" as="geometry"/>
                </mxCell>
                <mxCell id="31" value="" style="group" vertex="1" connectable="0" parent="29">
                    <mxGeometry x="65" width="130" height="220" as="geometry"/>
                </mxCell>
                <mxCell id="32" value="" style="ellipse;whiteSpace=wrap;html=1;aspect=fixed;fontSize=40;fillColor=none;strokeWidth=2;" vertex="1" parent="31">
                    <mxGeometry x="10" width="110" height="110" as="geometry"/>
                </mxCell>
                <mxCell id="33" value="" style="triangle;whiteSpace=wrap;html=1;fontSize=40;rotation=-90;fillColor=none;strokeWidth=2;" vertex="1" parent="31">
                    <mxGeometry x="10" y="100" width="110" height="130" as="geometry"/>
                </mxCell>
                <mxCell id="34" value="" style="group" vertex="1" connectable="0" parent="1">
                    <mxGeometry x="620" y="500" width="260" height="310" as="geometry"/>
                </mxCell>
                <mxCell id="35" value="" style="group" vertex="1" connectable="0" parent="34">
                    <mxGeometry x="90" y="70" width="130" height="220" as="geometry"/>
                </mxCell>
                <mxCell id="36" value="" style="ellipse;whiteSpace=wrap;html=1;aspect=fixed;fontSize=40;fillColor=none;strokeWidth=2;" vertex="1" parent="35">
                    <mxGeometry x="10" width="110" height="110" as="geometry"/>
                </mxCell>
                <mxCell id="37" value="" style="triangle;whiteSpace=wrap;html=1;fontSize=40;rotation=-90;fillColor=none;strokeWidth=2;" vertex="1" parent="35">
                    <mxGeometry x="10" y="100" width="110" height="130" as="geometry"/>
                </mxCell>
                <mxCell id="38" value="" style="endArrow=classic;html=1;strokeWidth=6;" edge="1" parent="1">
                    <mxGeometry width="50" height="50" relative="1" as="geometry">
                        <mxPoint x="330" y="570" as="sourcePoint"/>
                        <mxPoint x="480" y="390" as="targetPoint"/>
                    </mxGeometry>
                </mxCell>
                <mxCell id="39" value="" style="endArrow=classic;html=1;strokeWidth=6;" edge="1" parent="1">
                    <mxGeometry width="50" height="50" relative="1" as="geometry">
                        <mxPoint x="800" y="560" as="sourcePoint"/>
                        <mxPoint x="960" y="410" as="targetPoint"/>
                    </mxGeometry>
                </mxCell>
                <mxCell id="40" value="" style="endArrow=classic;html=1;strokeWidth=6;" edge="1" parent="1">
                    <mxGeometry width="50" height="50" relative="1" as="geometry">
                        <mxPoint x="1180" y="530" as="sourcePoint"/>
                        <mxPoint x="1050" y="410" as="targetPoint"/>
                    </mxGeometry>
                </mxCell>
                <mxCell id="41" value="" style="endArrow=classic;html=1;strokeWidth=6;" edge="1" parent="1">
                    <mxGeometry width="50" height="50" relative="1" as="geometry">
                        <mxPoint x="760" y="560" as="sourcePoint"/>
                        <mxPoint x="540" y="390" as="targetPoint"/>
                    </mxGeometry>
                </mxCell>
                <mxCell id="42" value="イベント取得" style="text;html=1;align=center;verticalAlign=middle;resizable=0;points=[];autosize=1;strokeColor=none;fillColor=none;fontSize=28;" vertex="1" parent="1">
                    <mxGeometry x="670" y="430" width="190" height="50" as="geometry"/>
                </mxCell>
                <mxCell id="11" value="クライアント" style="text;html=1;align=center;verticalAlign=middle;resizable=0;points=[];autosize=1;strokeColor=none;fillColor=none;fontSize=40;strokeWidth=2;" parent="1" vertex="1">
                    <mxGeometry x="640" y="820" width="260" height="60" as="geometry"/>
                </mxCell>
                <mxCell id="20" value="" style="group" parent="1" vertex="1" connectable="0">
                    <mxGeometry x="205" y="480" width="130" height="220" as="geometry"/>
                </mxCell>
                <mxCell id="3" value="" style="ellipse;whiteSpace=wrap;html=1;aspect=fixed;fontSize=40;fillColor=none;strokeWidth=2;" parent="20" vertex="1">
                    <mxGeometry x="10" width="110" height="110" as="geometry"/>
                </mxCell>
                <mxCell id="4" value="" style="triangle;whiteSpace=wrap;html=1;fontSize=40;rotation=-90;fillColor=none;strokeWidth=2;" parent="20" vertex="1">
                    <mxGeometry x="10" y="100" width="110" height="130" as="geometry"/>
                </mxCell>
            </root>
        </mxGraphModel>
    </diagram>
</mxfile>
